<svg width="46" height="46" viewBox="0 0 46 46" fill="none" xmlns="http://www.w3.org/2000/svg">
<circle cx="23" cy="23" r="23" fill="#56C6CD"/>
<path d="M32.8928 32.4944H13.7964C13.6778 32.4944 13.5641 32.4473 13.4803 32.3634C13.3965 32.2796 13.3494 32.1659 13.3494 32.0474V12.9509C13.3494 12.8323 13.3965 12.7186 13.4803 12.6348C13.5641 12.551 13.6778 12.5039 13.7964 12.5039H24.7652L33.3398 21.0785V32.0473C33.3398 32.106 33.3282 32.1642 33.3058 32.2184C33.2833 32.2726 33.2504 32.3219 33.2089 32.3634C33.1674 32.4049 33.1181 32.4379 33.0639 32.4603C33.0096 32.4828 32.9515 32.4944 32.8928 32.4944V32.4944Z" fill="#FFD469"/>
<path d="M22.3329 17.5517H16.3988C16.063 17.5517 15.7907 17.2795 15.7907 16.9437C15.7907 16.6078 16.063 16.3356 16.3988 16.3356H22.3329C22.6687 16.3356 22.9409 16.6078 22.9409 16.9437C22.9409 17.2795 22.6687 17.5517 22.3329 17.5517ZM22.9409 20.9236C22.9409 20.5878 22.6687 20.3156 22.3329 20.3156H16.3988C16.063 20.3156 15.7907 20.5878 15.7907 20.9236C15.7907 21.2595 16.063 21.5317 16.3988 21.5317H22.3329C22.6687 21.5316 22.9409 21.2595 22.9409 20.9236ZM22.9409 24.9036C22.9409 24.5678 22.6687 24.2955 22.3329 24.2955H16.3988C16.063 24.2955 15.7907 24.5677 15.7907 24.9036C15.7907 25.2394 16.063 25.5116 16.3988 25.5116H22.3329C22.6687 25.5116 22.9409 25.2393 22.9409 24.9036ZM28.0782 28.8835C28.0782 28.5477 27.806 28.2754 27.4702 28.2754H16.3988C16.063 28.2754 15.7907 28.5477 15.7907 28.8835C15.7907 29.2193 16.063 29.4915 16.3988 29.4915H27.4702C27.806 29.4915 28.0782 29.2193 28.0782 28.8835ZM30.1264 24.9036C30.1264 24.5678 29.8542 24.2955 29.5184 24.2955H25.422C25.0862 24.2955 24.8139 24.5677 24.8139 24.9036C24.8139 25.2394 25.0861 25.5116 25.422 25.5116H29.5184C29.8542 25.5116 30.1264 25.2393 30.1264 24.9036Z" fill="#597B91"/>
<path d="M24.7652 12.5039L33.3398 21.0785H26.5877C25.5812 21.0785 24.7652 20.2625 24.7652 19.2559V12.5039Z" fill="#FFB636"/>
</svg>
