<svg width="30" height="19" viewBox="0 0 30 19" fill="none" xmlns="http://www.w3.org/2000/svg">
<g clip-path="url(#clip0_3_34)">
<path d="M25.0835 16.9885H4.91501V18.901H25.0835V16.9885Z" fill="#786D68"/>
<path d="M5.33852 15.9775C5.25433 15.9778 5.17221 15.9513 5.10401 15.902C5.03582 15.8526 4.98507 15.7829 4.95904 15.7028L0.0197521 0.52368C5.92545e-05 0.46392 -0.00517436 0.40034 0.00448403 0.338164C0.0141424 0.275989 0.0384089 0.216993 0.0753026 0.166024C0.112196 0.115054 0.160671 0.0735655 0.216717 0.0449677C0.272764 0.0163699 0.33479 0.00147881 0.397711 0.00151789H0.487262C0.581305 0.00167847 0.672251 0.0351598 0.743947 0.0960179C0.815643 0.156876 0.863461 0.241173 0.878895 0.333941C1.08988 1.58622 2.14331 2.82483 3.84792 3.82514C5.39315 4.72829 7.28448 5.2884 8.78569 5.2884C10.0696 5.28524 11.318 4.867 12.3447 4.09609C13.3714 3.32519 14.1213 2.24297 14.4824 1.01093V0.403765C14.4824 0.351411 14.4927 0.299571 14.5128 0.251222C14.5329 0.202872 14.5623 0.158965 14.5994 0.122016C14.6365 0.0850664 14.6805 0.0558034 14.729 0.0359069C14.7774 0.0160105 14.8293 0.00587162 14.8816 0.00607144H15.1184C15.1708 0.00587162 15.2226 0.0160105 15.2711 0.0359069C15.3195 0.0558034 15.3635 0.0850664 15.4006 0.122016C15.4377 0.158965 15.4671 0.202872 15.4872 0.251222C15.5073 0.299571 15.5176 0.351411 15.5176 0.403765V1.01093C15.88 2.24106 16.63 3.32125 17.6559 4.09064C18.6819 4.86003 19.9289 5.27748 21.2113 5.28081C22.711 5.28081 24.6038 4.7207 26.1491 3.81755C27.8537 2.82331 28.9071 1.5847 29.1166 0.326351C29.1323 0.233458 29.1805 0.149133 29.2524 0.088297C29.3244 0.0274606 29.4155 -0.00596705 29.5097 -0.00607213H29.5993C29.6621 -0.00620384 29.724 0.00859234 29.7799 0.0370951C29.8359 0.0655979 29.8843 0.106991 29.9211 0.157863C29.9578 0.209008 29.9821 0.268068 29.9918 0.330288C30.0016 0.392509 29.9966 0.456151 29.9772 0.51609L25.038 15.6952C25.0117 15.7751 24.9609 15.8448 24.8928 15.8941C24.8246 15.9434 24.7426 15.97 24.6585 15.9699L5.33852 15.9775Z" fill="#786D68"/>
<path d="M15.5829 12.7029H11.7771V11.2629L14.2457 6.94286H16.3029L13.8343 11.2629H15.5829V9.72H17.4343V11.2629H18.1543V12.7029H17.4343V14.1429H15.5829V12.7029Z" fill="white"/>
</g>
<defs>
<clipPath id="clip0_3_34">
<rect width="30" height="18.901" fill="white"/>
</clipPath>
</defs>
</svg>
