<svg width="60" height="38" viewBox="0 0 60 38" fill="none" xmlns="http://www.w3.org/2000/svg">
<g clip-path="url(#clip0_52_143)">
<path d="M50.167 33.9769H9.82999V37.8021H50.167V33.9769Z" fill="#786D68"/>
<path d="M10.677 31.9551C10.5086 31.9556 10.3444 31.9027 10.208 31.8039C10.0716 31.7052 9.97011 31.5657 9.91805 31.4056L0.0394737 1.04736C8.79913e-05 0.92784 -0.0103792 0.800679 0.00893755 0.676329C0.0282543 0.551978 0.0767873 0.433986 0.150575 0.332047C0.224362 0.230108 0.321311 0.147131 0.433404 0.0899354C0.545497 0.0327398 0.669549 0.00295763 0.79539 0.00303579H0.974494C1.16258 0.00335693 1.34447 0.0703195 1.48786 0.192036C1.63126 0.313752 1.72689 0.482347 1.75776 0.667882C2.17974 3.17244 4.28658 5.64966 7.69581 7.65027C10.7863 9.45659 14.5689 10.5768 17.5713 10.5768C20.1391 10.5705 22.636 9.73399 24.6893 8.19219C26.7427 6.65039 28.2425 4.48594 28.9648 2.02186V0.807529C28.9648 0.702822 28.9854 0.599143 29.0256 0.502444C29.0658 0.405745 29.1246 0.317929 29.1988 0.244031C29.273 0.170133 29.361 0.111607 29.4579 0.0718138C29.5547 0.0320209 29.6585 0.0117432 29.7632 0.0121429H30.2368C30.3415 0.0117432 30.4453 0.0320209 30.5421 0.0718138C30.639 0.111607 30.727 0.170133 30.8012 0.244031C30.8754 0.317929 30.9342 0.405745 30.9744 0.502444C31.0146 0.599143 31.0352 0.702822 31.0352 0.807529V2.02186C31.76 4.48212 33.26 6.64249 35.3119 8.18128C37.3638 9.72007 39.8578 10.555 42.4226 10.5616C45.422 10.5616 49.2077 9.44141 52.2981 7.63509C55.7074 5.64663 57.8142 3.1694 58.2331 0.652702C58.2647 0.466915 58.3609 0.298267 58.5048 0.176594C58.6487 0.0549212 58.831 -0.0119341 59.0194 -0.0121443H59.1985C59.3241 -0.0124077 59.448 0.0171847 59.5599 0.0741902C59.6718 0.131196 59.7685 0.213982 59.8421 0.315725C59.9156 0.418016 59.9641 0.536136 59.9836 0.660577C60.0031 0.785017 59.9931 0.912302 59.9545 1.03218L50.0759 31.3904C50.0234 31.5503 49.9218 31.6895 49.7855 31.7882C49.6492 31.8869 49.4852 31.94 49.3169 31.9399L10.677 31.9551Z" fill="#786D68"/>
<path d="M31.1657 28.4914C28.8754 28.4914 26.3383 28.3543 23.5543 28.08V25.3029C26.5851 25.5086 28.848 25.6114 30.3429 25.6114C30.6583 25.6114 30.9052 25.5223 31.0834 25.344C31.2754 25.152 31.3714 24.8983 31.3714 24.5829V23.5543C31.3714 22.7314 30.96 22.32 30.1372 22.32H24.1714V13.8857H34.0457V16.7657H27.8743V19.44H31.1657C32.5097 19.44 33.4972 19.7486 34.128 20.3657C34.7589 20.9691 35.0743 21.8949 35.0743 23.1429V24.5829C35.0743 25.9269 34.7589 26.9143 34.128 27.5451C33.4972 28.176 32.5097 28.4914 31.1657 28.4914Z" fill="white"/>
</g>
<defs>
<clipPath id="clip0_52_143">
<rect width="60" height="37.8021" fill="white"/>
</clipPath>
</defs>
</svg>
