<svg width="60" height="38" viewBox="0 0 60 38" fill="none" xmlns="http://www.w3.org/2000/svg">
<g clip-path="url(#clip0_52_140)">
<path d="M50.167 33.9769H9.83V37.8021H50.167V33.9769Z" fill="#34B9C9"/>
<path d="M10.677 31.9551C10.5086 31.9556 10.3444 31.9027 10.208 31.8039C10.0716 31.7052 9.97011 31.5657 9.91805 31.4056L0.0394737 1.04736C8.79914e-05 0.927838 -0.0103792 0.800678 0.00893755 0.676327C0.0282543 0.551977 0.0768243 0.433985 0.150612 0.332046C0.224399 0.230106 0.321311 0.147129 0.433404 0.0899338C0.545497 0.0327382 0.669549 0.0029561 0.795391 0.00303426H0.974494C1.16258 0.0033554 1.34447 0.070318 1.48786 0.192034C1.63126 0.313751 1.72689 0.482345 1.75776 0.66788C2.17974 3.17243 4.28658 5.64966 7.69581 7.65027C10.7863 9.45658 14.5689 10.5768 17.5713 10.5768C20.139 10.57 22.6356 9.73331 24.6889 8.19159C26.7422 6.64986 28.242 4.48569 28.9648 2.02186V0.807528C28.9648 0.596578 29.0486 0.394268 29.1977 0.245104C29.3469 0.0959405 29.5492 0.0121414 29.7602 0.0121414H30.2368C30.3415 0.0117417 30.4453 0.0320194 30.5421 0.0718123C30.639 0.111605 30.727 0.170131 30.8012 0.24403C30.8754 0.317928 30.9342 0.405743 30.9744 0.502442C31.0146 0.599141 31.0352 0.70282 31.0352 0.807528V2.02186C31.7604 4.48361 33.2618 6.64507 35.3155 8.184C37.3693 9.72293 39.8654 10.5569 42.4317 10.5616C45.4311 10.5616 49.2168 9.4414 52.3072 7.63509C55.7165 5.64663 57.8233 3.1694 58.2423 0.6527C58.2738 0.466914 58.37 0.298265 58.5139 0.176593C58.6578 0.0549197 58.8401 -0.0119356 59.0286 -0.0121458H59.2046C59.3307 -0.0127058 59.4552 0.0167253 59.5677 0.0737162C59.6801 0.130707 59.7775 0.213624 59.8516 0.315631C59.9257 0.417638 59.9745 0.53581 59.994 0.660397C60.0135 0.784983 60.003 0.912414 59.9636 1.03218L50.082 31.3904C50.0305 31.5503 49.9295 31.6897 49.7936 31.7885C49.6578 31.8872 49.494 31.9403 49.326 31.9399L10.677 31.9551Z" fill="#34B9C9"/>
<path d="M34.6628 18.4114C34.6628 19.5771 34.1691 20.5851 33.1817 21.4354C32.88 21.696 32.5508 21.9566 32.1943 22.2171L27.7714 25.4057H34.6628V28.2857H23.5543V24.3771L30.96 19.0286V18C30.96 17.1771 30.5485 16.7657 29.7257 16.7657H23.9657V13.8857H30.5485C31.9885 13.8857 33.0308 14.2149 33.6754 14.8731C34.3337 15.5177 34.6628 16.56 34.6628 18V18.4114Z" fill="white"/>
</g>
<defs>
<clipPath id="clip0_52_140">
<rect width="60" height="37.8021" fill="white"/>
</clipPath>
</defs>
</svg>
