<svg width="60" height="38" viewBox="0 0 60 38" fill="none" xmlns="http://www.w3.org/2000/svg">
<g clip-path="url(#clip0_52_139)">
<path d="M50.167 33.9769H9.83001V37.8021H50.167V33.9769Z" fill="#F8BC4C"/>
<path d="M10.6794 31.9672C10.511 31.9678 10.3468 31.9148 10.2104 31.8161C10.074 31.7174 9.97247 31.5779 9.92041 31.4177L0.0388113 1.05951C4.50451e-05 0.939759 -0.00986034 0.812537 0.0099058 0.688228C0.0296719 0.563919 0.0785452 0.446044 0.152544 0.344222C0.226542 0.242401 0.323575 0.159518 0.435707 0.102335C0.547839 0.0451526 0.671896 0.0152912 0.797767 0.0151879H0.97385C1.16246 0.0147901 1.34507 0.0814286 1.48909 0.203208C1.63311 0.324988 1.72916 0.493984 1.76012 0.680034C2.17906 3.18459 4.28896 5.66182 7.69819 7.66242C10.7887 9.46874 14.5713 10.589 17.5737 10.589C20.1412 10.5816 22.6377 9.74479 24.6908 8.20314C26.744 6.66148 28.244 4.49759 28.9672 2.03401V0.819681C28.9672 0.608732 29.051 0.406422 29.2001 0.257258C29.3493 0.108094 29.5516 0.024295 29.7625 0.024295H30.2392C30.4501 0.024295 30.6524 0.108094 30.8016 0.257258C30.9508 0.406422 31.0346 0.608732 31.0346 0.819681V2.03401C31.7612 4.49724 33.2646 6.65959 35.3206 8.19857C37.3766 9.73756 39.875 10.5707 42.4432 10.5738C45.4426 10.5738 49.2282 9.45356 52.3157 7.64724C55.7249 5.65878 57.8348 3.18155 58.2537 0.664854C58.2853 0.479068 58.3815 0.310419 58.5254 0.188746C58.6693 0.0670733 58.8516 0.000217996 59.04 7.84469e-06H59.2161C59.3422 -0.000552169 59.4666 0.0288789 59.5791 0.0858698C59.6916 0.142861 59.7889 0.225778 59.8631 0.327785C59.9372 0.429791 59.986 0.547964 60.0055 0.67255C60.025 0.797137 60.0145 0.924568 59.9751 1.04433L50.0934 31.4026C50.0415 31.5622 49.9405 31.7013 49.8047 31.8C49.6689 31.8987 49.5054 31.9519 49.3375 31.952L10.6794 31.9672Z" fill="#F8BC4C"/>
<path d="M29.1086 28.2857V17.0743L26.7429 17.8971L25.7143 15.5314L29.52 13.8857H32.8114V28.2857H29.1086Z" fill="white"/>
</g>
<defs>
<clipPath id="clip0_52_139">
<rect width="60" height="37.8021" fill="white"/>
</clipPath>
</defs>
</svg>
