<svg width="30" height="19" viewBox="0 0 30 19" fill="none" xmlns="http://www.w3.org/2000/svg">
<g clip-path="url(#clip0_3_31)">
<path d="M25.0835 16.9885H4.91501V18.901H25.0835V16.9885Z" fill="#F8BC4C"/>
<path d="M5.33968 15.9836C5.25549 15.9839 5.17339 15.9574 5.1052 15.908C5.037 15.8587 4.98623 15.7889 4.96021 15.7089L0.0194057 0.529756C2.25226e-05 0.46988 -0.00493017 0.406269 0.0049529 0.344114C0.014836 0.28196 0.0392726 0.223022 0.0762718 0.172111C0.113271 0.1212 0.161787 0.079759 0.217853 0.0511676C0.273919 0.0225763 0.335948 0.0076456 0.398884 0.00759394H0.486925C0.581228 0.00739503 0.672534 0.0407143 0.744546 0.101604C0.816557 0.162494 0.864582 0.246992 0.880059 0.340017C1.08953 1.59229 2.14448 2.83091 3.84909 3.83121C5.39433 4.73437 7.28565 5.29448 8.78686 5.29448C10.0706 5.29082 11.3188 4.8724 12.3454 4.10157C13.372 3.33074 14.122 2.24879 14.4836 1.01701V0.409841C14.4836 0.304366 14.5255 0.203211 14.6001 0.128629C14.6746 0.0540471 14.7758 0.0121475 14.8813 0.0121475H15.1196C15.2251 0.0121475 15.3262 0.0540471 15.4008 0.128629C15.4754 0.203211 15.5173 0.304366 15.5173 0.409841V1.01701C15.8806 2.24862 16.6323 3.3298 17.6603 4.09929C18.6883 4.86878 19.9375 5.28536 21.2216 5.28689C22.7213 5.28689 24.6141 4.72678 26.1578 3.82362C27.8625 2.82939 28.9174 1.59078 29.1269 0.332427C29.1426 0.239534 29.1908 0.15521 29.2627 0.0943731C29.3347 0.0335367 29.4258 0.000108998 29.52 3.92234e-06H29.6081C29.6711 -0.000276084 29.7333 0.0144395 29.7896 0.0429349C29.8458 0.0714303 29.8945 0.112889 29.9315 0.163892C29.9686 0.214896 29.993 0.273982 30.0027 0.336275C30.0125 0.398568 30.0073 0.462284 29.9875 0.522166L25.0467 15.7013C25.0208 15.7811 24.9702 15.8507 24.9024 15.9C24.8345 15.9494 24.7527 15.976 24.6688 15.976L5.33968 15.9836Z" fill="#F8BC4C"/>
<path d="M14.5543 14.1429V8.53715L13.3714 8.94857L12.8571 7.76572L14.76 6.94286H16.4057V14.1429H14.5543Z" fill="white"/>
</g>
<defs>
<clipPath id="clip0_3_31">
<rect width="30" height="18.901" fill="white"/>
</clipPath>
</defs>
</svg>
