<svg width="60" height="38" viewBox="0 0 60 38" fill="none" xmlns="http://www.w3.org/2000/svg">
<g clip-path="url(#clip0_52_142)">
<path d="M50.167 33.9769H9.83002V37.8021H50.167V33.9769Z" fill="#786D68"/>
<path d="M10.677 31.9551C10.5087 31.9556 10.3444 31.9027 10.208 31.8039C10.0716 31.7052 9.97014 31.5657 9.91808 31.4056L0.0395042 1.04736C0.000118509 0.92784 -0.0103487 0.800679 0.00896807 0.676329C0.0282849 0.551978 0.0768178 0.433986 0.150605 0.332047C0.224393 0.230108 0.321342 0.147131 0.433435 0.0899354C0.545528 0.0327398 0.669579 0.00295763 0.795421 0.00303579H0.974524C1.16261 0.00335693 1.3445 0.0703195 1.48789 0.192036C1.63129 0.313752 1.72692 0.482347 1.75779 0.667882C2.17977 3.17244 4.28661 5.64966 7.69584 7.65027C10.7863 9.45659 14.569 10.5768 17.5714 10.5768C20.1391 10.5705 22.636 9.73399 24.6894 8.19219C26.7427 6.65039 28.2425 4.48594 28.9648 2.02186V0.807529C28.9648 0.702822 28.9855 0.599143 29.0256 0.502444C29.0658 0.405745 29.1247 0.317929 29.1989 0.244031C29.273 0.170133 29.3611 0.111607 29.4579 0.0718138C29.5548 0.0320209 29.6585 0.0117432 29.7633 0.0121429H30.2368C30.3415 0.0117432 30.4453 0.0320209 30.5421 0.0718138C30.639 0.111607 30.727 0.170133 30.8012 0.244031C30.8754 0.317929 30.9343 0.405745 30.9744 0.502444C31.0146 0.599143 31.0352 0.702822 31.0352 0.807529V2.02186C31.76 4.48212 33.26 6.64249 35.3119 8.18128C37.3638 9.72007 39.8578 10.555 42.4226 10.5616C45.422 10.5616 49.2077 9.44141 52.2982 7.63509C55.7074 5.64663 57.8142 3.1694 58.2332 0.652702C58.2647 0.466915 58.361 0.298267 58.5048 0.176594C58.6487 0.0549212 58.831 -0.0119341 59.0195 -0.0121443H59.1986C59.3242 -0.0124077 59.448 0.0171847 59.5599 0.0741902C59.6718 0.131196 59.7686 0.213982 59.8422 0.315725C59.9157 0.418016 59.9641 0.536136 59.9836 0.660577C60.0031 0.785017 59.9932 0.912302 59.9545 1.03218L50.0759 31.3904C50.0235 31.5503 49.9218 31.6895 49.7855 31.7882C49.6492 31.8869 49.4852 31.94 49.317 31.9399L10.677 31.9551Z" fill="#786D68"/>
<path d="M31.1657 25.4057H23.5543V22.5257L28.4914 13.8857H32.6057L27.6686 22.5257H31.1657V19.44H34.8686V22.5257H36.3086V25.4057H34.8686V28.2857H31.1657V25.4057Z" fill="white"/>
</g>
<defs>
<clipPath id="clip0_52_142">
<rect width="60" height="37.8021" fill="white"/>
</clipPath>
</defs>
</svg>
