<svg width="30" height="19" viewBox="0 0 30 19" fill="none" xmlns="http://www.w3.org/2000/svg">
<g clip-path="url(#clip0_3_33)">
<path d="M25.0835 16.9885H4.91501V18.901H25.0835V16.9885Z" fill="#EC6389"/>
<path d="M5.3385 15.9775C5.25431 15.9778 5.17219 15.9513 5.104 15.902C5.0358 15.8526 4.98505 15.7829 4.95903 15.7028L0.0197368 0.52368C4.39957e-05 0.46392 -0.00518962 0.40034 0.00446877 0.338164C0.0141272 0.275989 0.0383936 0.216993 0.0752873 0.166024C0.112181 0.115054 0.160656 0.0735655 0.216702 0.0449677C0.272749 0.0163699 0.334774 0.00147881 0.397695 0.00151789H0.487247C0.581289 0.00167847 0.672236 0.0351598 0.743932 0.0960179C0.815628 0.156876 0.863445 0.241173 0.87888 0.333941C1.08987 1.58622 2.14329 2.82483 3.8479 3.82514C5.39314 4.72829 7.28446 5.2884 8.78567 5.2884C10.0696 5.28524 11.318 4.867 12.3447 4.09609C13.3714 3.32519 14.1212 2.24297 14.4824 1.01093V0.403765C14.4824 0.351411 14.4927 0.299571 14.5128 0.251222C14.5329 0.202872 14.5623 0.158965 14.5994 0.122016C14.6365 0.0850664 14.6805 0.0558034 14.7289 0.0359069C14.7774 0.0160105 14.8293 0.00587162 14.8816 0.00607144H15.1184C15.1707 0.00587162 15.2226 0.0160105 15.2711 0.0359069C15.3195 0.0558034 15.3635 0.0850664 15.4006 0.122016C15.4377 0.158965 15.4671 0.202872 15.4872 0.251222C15.5073 0.299571 15.5176 0.351411 15.5176 0.403765V1.01093C15.88 2.24106 16.63 3.32125 17.6559 4.09064C18.6819 4.86003 19.9289 5.27748 21.2113 5.28081C22.711 5.28081 24.6038 4.7207 26.1491 3.81755C27.8537 2.82331 28.9071 1.5847 29.1166 0.326351C29.1323 0.233458 29.1805 0.149133 29.2524 0.088297C29.3244 0.0274606 29.4155 -0.00596705 29.5097 -0.00607213H29.5993C29.6621 -0.00620384 29.724 0.00859234 29.7799 0.0370951C29.8359 0.0655979 29.8843 0.106991 29.9211 0.157863C29.9578 0.209008 29.982 0.268068 29.9918 0.330288C30.0015 0.392509 29.9966 0.456151 29.9772 0.51609L25.0379 15.6952C25.0117 15.7751 24.9609 15.8448 24.8927 15.8941C24.8246 15.9434 24.7426 15.97 24.6585 15.9699L5.3385 15.9775Z" fill="#EC6389"/>
<path d="M15.5828 14.2457C14.4377 14.2457 13.1691 14.1771 11.7771 14.04V12.6514C13.2926 12.7543 14.424 12.8057 15.1714 12.8057C15.3291 12.8057 15.4526 12.7611 15.5417 12.672C15.6377 12.576 15.6857 12.4491 15.6857 12.2914V11.88C15.6857 11.4686 15.48 11.2629 15.0686 11.2629H12.9086V9.82286H14.8628C15.2743 9.82286 15.48 9.61715 15.48 9.20572V9C15.48 8.58857 15.2743 8.38286 14.8628 8.38286H11.88V6.94286H15.3771C16.0491 6.94286 16.5428 7.09715 16.8583 7.40572C17.1737 7.70743 17.3314 8.17029 17.3314 8.79429C17.3314 9.20572 17.2354 9.54172 17.0434 9.80229C16.8583 10.056 16.6114 10.2343 16.3028 10.3371C16.8583 10.488 17.2354 10.8583 17.4343 11.448C17.5028 11.6606 17.5371 11.9074 17.5371 12.1886V12.2914C17.5371 12.9634 17.3794 13.4571 17.064 13.7726C16.7486 14.088 16.2548 14.2457 15.5828 14.2457Z" fill="white"/>
</g>
<defs>
<clipPath id="clip0_3_33">
<rect width="30" height="18.901" fill="white"/>
</clipPath>
</defs>
</svg>
