<svg width="30" height="19" viewBox="0 0 30 19" fill="none" xmlns="http://www.w3.org/2000/svg">
<g clip-path="url(#clip0_3_32)">
<path d="M25.0835 16.9885H4.91501V18.901H25.0835V16.9885Z" fill="#34B9C9"/>
<path d="M5.3385 15.9775C5.25431 15.9778 5.17221 15.9513 5.10402 15.902C5.03582 15.8526 4.98505 15.7829 4.95903 15.7028L0.0197368 0.523679C4.39957e-05 0.463919 -0.00518962 0.400339 0.00446877 0.338164C0.0141272 0.275988 0.0384122 0.216992 0.0753059 0.166023C0.1122 0.115053 0.160656 0.0735647 0.216702 0.0449669C0.272749 0.0163691 0.334774 0.00147805 0.397695 0.00151713H0.487247C0.581289 0.0016777 0.672236 0.035159 0.743932 0.0960172C0.815628 0.156875 0.863445 0.241173 0.87888 0.33394C1.08987 1.58622 2.14329 2.82483 3.8479 3.82514C5.39314 4.72829 7.28446 5.2884 8.78567 5.2884C10.0695 5.28499 11.3178 4.86666 12.3444 4.09579C13.3711 3.32493 14.121 2.24284 14.4824 1.01093V0.403764C14.4824 0.298289 14.5243 0.197134 14.5989 0.122552C14.6735 0.0479703 14.7746 0.00607068 14.8801 0.00607068H15.1184C15.1708 0.00587085 15.2226 0.0160097 15.2711 0.0359061C15.3195 0.0558026 15.3635 0.0850657 15.4006 0.122015C15.4377 0.158964 15.4671 0.202872 15.4872 0.251221C15.5073 0.299571 15.5176 0.35141 15.5176 0.403764V1.01093C15.8802 2.2418 16.6309 3.32253 17.6578 4.092C18.6846 4.86147 19.9327 5.27846 21.2159 5.28081C22.7155 5.28081 24.6084 4.7207 26.1536 3.81754C27.8582 2.82331 28.9117 1.5847 29.1211 0.32635C29.1369 0.233457 29.185 0.149133 29.257 0.0882963C29.3289 0.0274599 29.4201 -0.00596781 29.5143 -0.00607289H29.6023C29.6654 -0.0063529 29.7276 0.00836265 29.7838 0.0368581C29.8401 0.0653535 29.8887 0.106812 29.9258 0.157815C29.9629 0.208819 29.9873 0.267905 29.997 0.330198C30.0067 0.392492 30.0015 0.456207 29.9818 0.516089L25.041 15.6952C25.0152 15.7751 24.9648 15.8448 24.8968 15.8942C24.8289 15.9436 24.747 15.9701 24.663 15.9699L5.3385 15.9775Z" fill="#34B9C9"/>
<path d="M17.3314 9.20572C17.3314 9.78857 17.0846 10.2926 16.5908 10.7177C16.44 10.848 16.2754 10.9783 16.0971 11.1086L13.8857 12.7029H17.3314V14.1429H11.7771V12.1886L15.48 9.51429V9C15.48 8.58857 15.2743 8.38286 14.8628 8.38286H11.9828V6.94286H15.2743C15.9943 6.94286 16.5154 7.10743 16.8377 7.43657C17.1668 7.75886 17.3314 8.28 17.3314 9V9.20572Z" fill="white"/>
</g>
<defs>
<clipPath id="clip0_3_32">
<rect width="30" height="18.901" fill="white"/>
</clipPath>
</defs>
</svg>
