<svg width="30" height="19" viewBox="0 0 30 19" fill="none" xmlns="http://www.w3.org/2000/svg">
<g clip-path="url(#clip0_3_35)">
<path d="M25.0835 16.9885H4.915V18.901H25.0835V16.9885Z" fill="#786D68"/>
<path d="M5.33851 15.9775C5.25432 15.9778 5.1722 15.9513 5.10401 15.902C5.03581 15.8526 4.98506 15.7829 4.95903 15.7028L0.0197445 0.52368C5.16251e-05 0.46392 -0.00518199 0.40034 0.0044764 0.338164C0.0141348 0.275989 0.0384013 0.216993 0.075295 0.166024C0.112189 0.115054 0.160663 0.0735655 0.21671 0.0449677C0.272756 0.0163699 0.334782 0.00147881 0.397703 0.00151789H0.487254C0.581297 0.00167847 0.672243 0.0351598 0.743939 0.0960179C0.815635 0.156876 0.863453 0.241173 0.878887 0.333941C1.08988 1.58622 2.1433 2.82483 3.84791 3.82514C5.39315 4.72829 7.28447 5.2884 8.78568 5.2884C10.0696 5.28524 11.318 4.867 12.3447 4.09609C13.3714 3.32519 14.1212 2.24297 14.4824 1.01093V0.403765C14.4824 0.351411 14.4927 0.299571 14.5128 0.251222C14.5329 0.202872 14.5623 0.158965 14.5994 0.122016C14.6365 0.0850664 14.6805 0.0558034 14.729 0.0359069C14.7774 0.0160105 14.8293 0.00587162 14.8816 0.00607144H15.1184C15.1708 0.00587162 15.2226 0.0160105 15.2711 0.0359069C15.3195 0.0558034 15.3635 0.0850664 15.4006 0.122016C15.4377 0.158965 15.4671 0.202872 15.4872 0.251222C15.5073 0.299571 15.5176 0.351411 15.5176 0.403765V1.01093C15.88 2.24106 16.63 3.32125 17.6559 4.09064C18.6819 4.86003 19.9289 5.27748 21.2113 5.28081C22.711 5.28081 24.6038 4.7207 26.1491 3.81755C27.8537 2.82331 28.9071 1.5847 29.1166 0.326351C29.1323 0.233458 29.1805 0.149133 29.2524 0.088297C29.3244 0.0274606 29.4155 -0.00596705 29.5097 -0.00607213H29.5993C29.6621 -0.00620384 29.724 0.00859234 29.7799 0.0370951C29.8359 0.0655979 29.8843 0.106991 29.9211 0.157863C29.9578 0.209008 29.982 0.268068 29.9918 0.330288C30.0016 0.392509 29.9966 0.456151 29.9772 0.51609L25.0379 15.6952C25.0117 15.7751 24.9609 15.8448 24.8928 15.8941C24.8246 15.9434 24.7426 15.97 24.6585 15.9699L5.33851 15.9775Z" fill="#786D68"/>
<path d="M15.5829 14.2457C14.4377 14.2457 13.1691 14.1771 11.7771 14.04V12.6514C13.2926 12.7543 14.424 12.8057 15.1714 12.8057C15.3291 12.8057 15.4526 12.7611 15.5417 12.672C15.6377 12.576 15.6857 12.4491 15.6857 12.2914V11.7771C15.6857 11.3657 15.48 11.16 15.0686 11.16H12.0857V6.94286H17.0229V8.38286H13.9371V9.72H15.5829C16.2549 9.72 16.7486 9.87429 17.064 10.1829C17.3794 10.4846 17.5371 10.9474 17.5371 11.5714V12.2914C17.5371 12.9634 17.3794 13.4571 17.064 13.7726C16.7486 14.088 16.2549 14.2457 15.5829 14.2457Z" fill="white"/>
</g>
<defs>
<clipPath id="clip0_3_35">
<rect width="30" height="18.901" fill="white"/>
</clipPath>
</defs>
</svg>
