<svg width="28" height="28" viewBox="0 0 28 28" fill="none" xmlns="http://www.w3.org/2000/svg">
<path d="M11.5 2C14.0196 2 16.4359 3.00089 18.2175 4.78249C19.9991 6.56408 21 8.98044 21 11.5C21 13.582 20.33 15.507 19.195 17.073L25.561 23.439C25.8363 23.7102 25.9962 24.0772 26.0075 24.4635C26.0188 24.8498 25.8806 25.2255 25.6217 25.5124C25.3628 25.7993 25.0032 25.9752 24.6178 26.0034C24.2324 26.0317 23.851 25.9101 23.553 25.664L23.439 25.561L17.073 19.195C15.4532 20.3713 13.5019 21.0033 11.5 21C8.98044 21 6.56408 19.9991 4.78249 18.2175C3.00089 16.4359 2 14.0196 2 11.5C2 8.98044 3.00089 6.56408 4.78249 4.78249C6.56408 3.00089 8.98044 2 11.5 2V2ZM11.5 5C9.77609 5 8.12279 5.68482 6.90381 6.90381C5.68482 8.12279 5 9.77609 5 11.5C5 13.2239 5.68482 14.8772 6.90381 16.0962C8.12279 17.3152 9.77609 18 11.5 18C13.2239 18 14.8772 17.3152 16.0962 16.0962C17.3152 14.8772 18 13.2239 18 11.5C18 9.77609 17.3152 8.12279 16.0962 6.90381C14.8772 5.68482 13.2239 5 11.5 5V5Z" fill="#EFC3BC" stroke="#D04465"/>
</svg>
