<svg width="43" height="43" viewBox="0 0 43 43" fill="none" xmlns="http://www.w3.org/2000/svg">
<rect y="21.2132" width="30" height="30" transform="rotate(-45 0 21.2132)" fill="#FD8D7D"/>
<path d="M22.625 25.875C21.2333 25.875 19.6917 25.7917 18 25.625V23.9375C19.8417 24.0625 21.2167 24.125 22.125 24.125C22.3167 24.125 22.4667 24.0708 22.575 23.9625C22.6917 23.8458 22.75 23.6917 22.75 23.5V23C22.75 22.5 22.5 22.25 22 22.25H19.375V20.5H21.75C22.25 20.5 22.5 20.25 22.5 19.75V19.5C22.5 19 22.25 18.75 21.75 18.75H18.125V17H22.375C23.1917 17 23.7917 17.1875 24.175 17.5625C24.5583 17.9292 24.75 18.4917 24.75 19.25C24.75 19.75 24.6333 20.1583 24.4 20.475C24.175 20.7833 23.875 21 23.5 21.125C24.175 21.3083 24.6333 21.7583 24.875 22.475C24.9583 22.7333 25 23.0333 25 23.375V23.5C25 24.3167 24.8083 24.9167 24.425 25.3C24.0417 25.6833 23.4417 25.875 22.625 25.875Z" fill="white"/>
</svg>
