<svg width="104" height="20" viewBox="0 0 104 20" fill="none" xmlns="http://www.w3.org/2000/svg">
<path d="M7.47693 7.26012L7.60561 7.24224L7.66493 7.12665L10.4 1.79752L13.1351 7.12665L13.1943 7.2421L13.3229 7.26009L19.4154 8.11261L15.0131 12.2363L14.914 12.3291L14.9379 12.4627L15.9809 18.3012L10.5127 15.5393L10.4 15.4824L10.2873 15.5393L4.81917 18.3012L5.86213 12.4627L5.88598 12.3292L5.78707 12.2364L1.38465 8.10685L7.47693 7.26012Z" fill="#FFD15B" stroke="#D6BA5A" stroke-width="0.5"/>
<path d="M27.6129 7.26012L27.7416 7.24224L27.8009 7.12665L30.536 1.79752L33.2711 7.12665L33.3304 7.2421L33.4589 7.26009L39.5514 8.11261L35.1491 12.2363L35.05 12.3291L35.0739 12.4627L36.1169 18.3012L30.6487 15.5393L30.536 15.4824L30.4233 15.5393L24.9552 18.3012L25.9981 12.4627L26.022 12.3292L25.9231 12.2364L21.5206 8.10685L27.6129 7.26012Z" fill="#FFD15B" stroke="#D6BA5A" stroke-width="0.5"/>
<path d="M47.7489 7.26012L47.8776 7.24224L47.937 7.12665L50.672 1.79752L53.4071 7.12665L53.4664 7.2421L53.5949 7.26009L59.6874 8.11261L55.2851 12.2363L55.1861 12.3291L55.2099 12.4627L56.2529 18.3012L50.7847 15.5393L50.672 15.4824L50.5593 15.5393L45.0912 18.3012L46.1341 12.4627L46.158 12.3292L46.0591 12.2364L41.6567 8.10685L47.7489 7.26012Z" fill="#FFD15B" stroke="#D6BA5A" stroke-width="0.5"/>
<path d="M67.885 7.26012L68.0136 7.24224L68.073 7.12665L70.8081 1.79752L73.5431 7.12665L73.6024 7.2421L73.7309 7.26009L79.8234 8.11261L75.4211 12.2363L75.3221 12.3291L75.3459 12.4627L76.3889 18.3012L70.9208 15.5393L70.8081 15.4824L70.6953 15.5393L65.2272 18.3012L66.2702 12.4627L66.294 12.3292L66.1951 12.2364L61.7927 8.10685L67.885 7.26012Z" fill="#FFD15B" stroke="#D6BA5A" stroke-width="0.5"/>
<path d="M88.021 7.26012L88.1496 7.24224L88.209 7.12665L90.944 1.79752L93.6791 7.12665L93.7384 7.2421L93.8669 7.26009L99.9594 8.11261L95.5571 12.2363L95.4581 12.3291L95.4819 12.4627L96.5249 18.3012L91.0567 15.5393L90.944 15.4824L90.8313 15.5393L85.3632 18.3012L86.4061 12.4627L86.43 12.3292L86.3311 12.2364L81.9287 8.10685L88.021 7.26012Z" fill="#FFD15B" stroke="#D6BA5A" stroke-width="0.5"/>
</svg>
