<svg width="120" height="24" viewBox="0 0 120 24" fill="none" xmlns="http://www.w3.org/2000/svg">
<path d="M8.58699 8.236L11.185 3.004C11.2606 2.85258 11.3769 2.72523 11.5209 2.63622C11.6648 2.54721 11.8307 2.50006 12 2.50006C12.1692 2.50006 12.3351 2.54721 12.4791 2.63622C12.6231 2.72523 12.7394 2.85258 12.815 3.004L15.413 8.236L21.221 9.08C21.3885 9.10323 21.5461 9.17309 21.6759 9.28161C21.8056 9.39013 21.9022 9.53293 21.9546 9.69373C22.0071 9.85452 22.0133 10.0268 21.9725 10.191C21.9317 10.3551 21.8456 10.5045 21.724 10.622L17.522 14.692L18.514 20.442C18.641 21.18 17.861 21.742 17.194 21.394L12 18.678L6.80499 21.394C6.13899 21.743 5.35899 21.18 5.48599 20.441L6.47799 14.691L2.27599 10.621C2.15498 10.5034 2.06939 10.3542 2.02896 10.1903C1.98852 10.0265 1.99487 9.85457 2.04726 9.69414C2.09966 9.53372 2.19601 9.39122 2.32536 9.28283C2.45471 9.17444 2.61188 9.10452 2.77899 9.081L8.58699 8.236V8.236Z" fill="#FEDC85" stroke="#EFC968" stroke-width="1.5" stroke-linecap="round" stroke-linejoin="round"/>
<path d="M32.587 8.236L35.185 3.004C35.2606 2.85258 35.3769 2.72523 35.5209 2.63622C35.6648 2.54721 35.8308 2.50006 36 2.50006C36.1693 2.50006 36.3352 2.54721 36.4791 2.63622C36.6231 2.72523 36.7394 2.85258 36.815 3.004L39.413 8.236L45.221 9.08C45.3885 9.10323 45.5461 9.17309 45.6759 9.28161C45.8056 9.39013 45.9022 9.53293 45.9546 9.69373C46.0071 9.85452 46.0133 10.0268 45.9725 10.191C45.9317 10.3551 45.8456 10.5045 45.724 10.622L41.522 14.692L42.514 20.442C42.641 21.18 41.861 21.742 41.194 21.394L36 18.678L30.805 21.394C30.139 21.743 29.359 21.18 29.486 20.441L30.478 14.691L26.276 10.621C26.155 10.5034 26.0694 10.3542 26.029 10.1903C25.9885 10.0265 25.9949 9.85457 26.0473 9.69414C26.0997 9.53372 26.196 9.39122 26.3254 9.28283C26.4547 9.17444 26.6119 9.10452 26.779 9.081L32.587 8.236V8.236Z" fill="#FEDC85" stroke="#EFC968" stroke-width="1.5" stroke-linecap="round" stroke-linejoin="round"/>
<path d="M56.587 8.236L59.185 3.004C59.2606 2.85258 59.3769 2.72523 59.5209 2.63622C59.6648 2.54721 59.8308 2.50006 60 2.50006C60.1693 2.50006 60.3352 2.54721 60.4791 2.63622C60.6231 2.72523 60.7394 2.85258 60.815 3.004L63.413 8.236L69.221 9.08C69.3885 9.10323 69.5461 9.17309 69.6759 9.28161C69.8056 9.39013 69.9022 9.53293 69.9546 9.69373C70.0071 9.85452 70.0133 10.0268 69.9725 10.191C69.9317 10.3551 69.8456 10.5045 69.724 10.622L65.522 14.692L66.514 20.442C66.641 21.18 65.861 21.742 65.194 21.394L60 18.678L54.805 21.394C54.139 21.743 53.359 21.18 53.486 20.441L54.478 14.691L50.276 10.621C50.155 10.5034 50.0694 10.3542 50.029 10.1903C49.9885 10.0265 49.9949 9.85457 50.0473 9.69414C50.0997 9.53372 50.196 9.39122 50.3254 9.28283C50.4547 9.17444 50.6119 9.10452 50.779 9.081L56.587 8.236V8.236Z" fill="#FEDC85" stroke="#EFC968" stroke-width="1.5" stroke-linecap="round" stroke-linejoin="round"/>
<path d="M109.806 5L108.816 3.004C108.74 2.85232 108.624 2.72471 108.48 2.63551C108.336 2.54631 108.17 2.49906 108.001 2.49906C107.831 2.49906 107.665 2.54631 107.521 2.63551C107.377 2.72471 107.261 2.85232 107.185 3.004L106.689 4.002" stroke="#EFC968" stroke-width="1.5" stroke-linecap="round" stroke-linejoin="round"/>
<path d="M111.011 7.427L111.413 8.236L112.865 8.447" stroke="#EFC968" stroke-width="1.5" stroke-linecap="round" stroke-linejoin="round"/>
<path d="M115.77 8.87L117.221 9.08C117.389 9.10323 117.546 9.17309 117.676 9.28161C117.806 9.39013 117.902 9.53294 117.955 9.69373C118.007 9.85452 118.013 10.0268 117.972 10.191C117.932 10.3551 117.846 10.5045 117.724 10.622L116.674 11.639" stroke="#EFC968" stroke-width="1.5" stroke-linecap="round" stroke-linejoin="round"/>
<path d="M114.572 13.674L113.522 14.692L113.77 16.129" stroke="#EFC968" stroke-width="1.5" stroke-linecap="round" stroke-linejoin="round"/>
<path d="M114.266 19.004L114.514 20.441C114.641 21.18 113.861 21.743 113.194 21.394L111.896 20.715" stroke="#EFC968" stroke-width="1.5" stroke-linecap="round" stroke-linejoin="round"/>
<path d="M106.428 19.5L108 18.678L109.299 19.357" stroke="#EFC968" stroke-width="1.5" stroke-linecap="round" stroke-linejoin="round"/>
<path d="M101.671 19.369L101.486 20.441C101.359 21.18 102.139 21.743 102.806 21.394L103.653 20.951" stroke="#EFC968" stroke-width="1.5" stroke-linecap="round" stroke-linejoin="round"/>
<path d="M102.253 16L102.478 14.692L101.783 14.019" stroke="#EFC968" stroke-width="1.5" stroke-linecap="round" stroke-linejoin="round"/>
<path d="M99.699 12L98.276 10.622C98.1544 10.5045 98.0683 10.3551 98.0275 10.191C97.9867 10.0268 97.9929 9.85452 98.0454 9.69373C98.0978 9.53294 98.1944 9.39013 98.3241 9.28161C98.4539 9.17309 98.6115 9.10323 98.779 9.08L99.889 8.919" stroke="#EFC968" stroke-width="1.5" stroke-linecap="round" stroke-linejoin="round"/>
<path d="M103 8.467L104.587 8.236L105.391 6.618" stroke="#EFC968" stroke-width="1.5" stroke-linecap="round" stroke-linejoin="round"/>
<path d="M83.185 3.004C83.2606 2.85258 83.3769 2.72523 83.5209 2.63622C83.6648 2.54721 83.8307 2.50006 84 2.50006C84.1692 2.50006 84.3352 2.54721 84.4791 2.63622C84.6231 2.72523 84.7394 2.85258 84.815 3.004L85.311 4.002" stroke="#EFC968" stroke-width="1.5" stroke-linecap="round" stroke-linejoin="round"/>
<path d="M84 18.678L85.572 19.5" stroke="#EFC968" stroke-width="1.5" stroke-linecap="round" stroke-linejoin="round"/>
<path d="M90.329 19.369L90.514 20.441C90.641 21.18 89.861 21.743 89.194 21.394L88.347 20.951" stroke="#EFC968" stroke-width="1.5" stroke-linecap="round" stroke-linejoin="round"/>
<path d="M89.747 16L89.522 14.692L90.217 14.019" stroke="#EFC968" stroke-width="1.5" stroke-linecap="round" stroke-linejoin="round"/>
<path d="M92.301 12L93.724 10.622C93.8456 10.5045 93.9317 10.3551 93.9725 10.191C94.0133 10.0268 94.0071 9.85452 93.9546 9.69372C93.9022 9.53293 93.8056 9.39013 93.6759 9.28161C93.5461 9.17309 93.3885 9.10323 93.221 9.08L92.111 8.919" stroke="#EFC968" stroke-width="1.5" stroke-linecap="round" stroke-linejoin="round"/>
<path d="M89 8.467L87.413 8.236L86.609 6.618" stroke="#EFC968" stroke-width="1.5" stroke-linecap="round" stroke-linejoin="round"/>
<path d="M80.587 8.236L83.185 3.004C83.2595 2.85168 83.3755 2.72354 83.5198 2.63436C83.664 2.54518 83.8304 2.4986 84 2.5V18.678L78.805 21.394C78.139 21.743 77.359 21.18 77.486 20.441L78.478 14.691L74.276 10.621C74.155 10.5034 74.0694 10.3542 74.029 10.1903C73.9885 10.0265 73.9949 9.85457 74.0473 9.69415C74.0997 9.53372 74.196 9.39122 74.3254 9.28283C74.4547 9.17444 74.6119 9.10452 74.779 9.081L80.587 8.236V8.236Z" fill="#FEDC85" stroke="#EFC968" stroke-width="1.5" stroke-linecap="round" stroke-linejoin="round"/>
</svg>
