<svg width="104" height="20" viewBox="0 0 104 20" fill="none" xmlns="http://www.w3.org/2000/svg">
<path d="M10.4 1.25L7.44251 7.0125L0.832031 7.93125L5.61603 12.4188L4.48503 18.75L10.4 15.7625L16.315 18.75L15.184 12.4188L19.968 7.9375L13.3575 7.0125L10.4 1.25Z" fill="#FFD15B"/>
<path fill-rule="evenodd" clip-rule="evenodd" d="M7.7687 7.47197L1.93727 8.28245L6.15594 12.2397L5.15331 17.8523L10.4 15.2023L15.6467 17.8523L14.6441 12.2394L18.8628 8.28771L13.0312 7.47171L10.4 2.34503L7.7687 7.47197ZM7.44251 7.0125L0.832031 7.93125L5.61603 12.4188L4.48503 18.75L10.4 15.7625L16.315 18.75L15.184 12.4188L19.968 7.9375L13.3575 7.0125L10.4 1.25L7.44251 7.0125Z" fill="#D6BA5A"/>
<path d="M30.536 1.25L27.5785 7.0125L20.968 7.93125L25.752 12.4188L24.621 18.75L30.536 15.7625L36.451 18.75L35.32 12.4188L40.104 7.9375L33.4935 7.0125L30.536 1.25Z" fill="#FFD15B"/>
<path fill-rule="evenodd" clip-rule="evenodd" d="M27.9047 7.47197L22.0733 8.28245L26.2919 12.2397L25.2893 17.8523L30.536 15.2023L35.7827 17.8523L34.7801 12.2394L38.9988 8.28771L33.1672 7.47171L30.536 2.34503L27.9047 7.47197ZM27.5785 7.0125L20.968 7.93125L25.752 12.4188L24.621 18.75L30.536 15.7625L36.451 18.75L35.32 12.4188L40.104 7.9375L33.4935 7.0125L30.536 1.25L27.5785 7.0125Z" fill="#D6BA5A"/>
<path d="M50.672 1.25L47.7145 7.0125L41.104 7.93125L45.888 12.4188L44.757 18.75L50.672 15.7625L56.587 18.75L55.456 12.4188L60.24 7.9375L53.6295 7.0125L50.672 1.25Z" fill="#FFD15B"/>
<path fill-rule="evenodd" clip-rule="evenodd" d="M48.0407 7.47197L42.2093 8.28245L46.4279 12.2397L45.4253 17.8523L50.672 15.2023L55.9188 17.8523L54.9161 12.2394L59.1348 8.28771L53.3032 7.47171L50.672 2.34503L48.0407 7.47197ZM47.7145 7.0125L41.104 7.93125L45.888 12.4188L44.757 18.75L50.672 15.7625L56.587 18.75L55.456 12.4188L60.24 7.9375L53.6295 7.0125L50.672 1.25L47.7145 7.0125Z" fill="#D6BA5A"/>
<path d="M70.8081 1.25L67.8505 7.0125L61.2401 7.93125L66.0241 12.4188L64.8931 18.75L70.8081 15.7625L76.723 18.75L75.592 12.4188L80.376 7.9375L73.7656 7.0125L70.8081 1.25Z" fill="#FFD15B"/>
<path fill-rule="evenodd" clip-rule="evenodd" d="M68.1767 7.47197L62.3453 8.28245L66.564 12.2397L65.5613 17.8523L70.8081 15.2023L76.0548 17.8523L75.0521 12.2394L79.2708 8.28771L73.4392 7.47171L70.8081 2.34503L68.1767 7.47197ZM67.8505 7.0125L61.2401 7.93125L66.0241 12.4188L64.8931 18.75L70.8081 15.7625L76.723 18.75L75.592 12.4188L80.376 7.9375L73.7656 7.0125L70.8081 1.25L67.8505 7.0125Z" fill="#D6BA5A"/>
<path d="M90.944 1.25L87.9865 7.0125L81.376 7.93125L86.16 12.4188L85.029 18.75L90.944 15.7625L96.859 18.75L95.728 12.4188L100.512 7.9375L93.9015 7.0125L90.944 1.25Z" fill="#EEEBE3"/>
<path fill-rule="evenodd" clip-rule="evenodd" d="M88.3127 7.47197L82.4813 8.28245L86.6999 12.2397L85.6973 17.8523L90.944 15.2023L96.1908 17.8523L95.1881 12.2394L99.4068 8.28771L93.5752 7.47171L90.944 2.34503L88.3127 7.47197ZM87.9865 7.0125L81.376 7.93125L86.16 12.4188L85.029 18.75L90.944 15.7625L96.859 18.75L95.728 12.4188L100.512 7.9375L93.9015 7.0125L90.944 1.25L87.9865 7.0125Z" fill="#DDDBD6"/>
<path fill-rule="evenodd" clip-rule="evenodd" d="M91 1.35904L90.944 1.25L87.9865 7.0125L81.376 7.93125L86.16 12.4188L85.029 18.75L90.944 15.7625L91 15.7908V1.35904Z" fill="#FFD15B"/>
<path fill-rule="evenodd" clip-rule="evenodd" d="M91 15.7908L90.944 15.7625L85.029 18.75L86.16 12.4188L81.376 7.93125L87.9865 7.0125L90.944 1.25L91 1.35904V15.7908ZM90.5 15.4266V3.21021L88.3127 7.47197L82.4813 8.28245L86.6999 12.2397L85.6973 17.8523L90.5 15.4266Z" fill="#D6BA5A"/>
</svg>
