<svg width="120" height="24" viewBox="0 0 120 24" fill="none" xmlns="http://www.w3.org/2000/svg">
<path d="M8.58699 8.236L11.185 3.004C11.2606 2.85258 11.3769 2.72523 11.5209 2.63622C11.6648 2.54721 11.8307 2.50006 12 2.50006C12.1692 2.50006 12.3351 2.54721 12.4791 2.63622C12.6231 2.72523 12.7394 2.85258 12.815 3.004L15.413 8.236L21.221 9.08C21.3885 9.10323 21.5461 9.17309 21.6759 9.28161C21.8056 9.39013 21.9022 9.53293 21.9546 9.69373C22.0071 9.85452 22.0133 10.0268 21.9725 10.191C21.9317 10.3551 21.8456 10.5045 21.724 10.622L17.522 14.692L18.514 20.442C18.641 21.18 17.861 21.742 17.194 21.394L12 18.678L6.80499 21.394C6.13899 21.743 5.35899 21.18 5.48599 20.441L6.47799 14.691L2.27599 10.621C2.15498 10.5034 2.06939 10.3542 2.02896 10.1903C1.98852 10.0265 1.99487 9.85457 2.04726 9.69414C2.09966 9.53372 2.19601 9.39122 2.32536 9.28283C2.45471 9.17444 2.61188 9.10452 2.77899 9.081L8.58699 8.236V8.236Z" fill="#FEDC85" stroke="#EFC968" stroke-width="1.5" stroke-linecap="round" stroke-linejoin="round"/>
<path d="M32.587 8.236L35.185 3.004C35.2606 2.85258 35.3769 2.72523 35.5209 2.63622C35.6648 2.54721 35.8308 2.50006 36 2.50006C36.1693 2.50006 36.3352 2.54721 36.4791 2.63622C36.6231 2.72523 36.7394 2.85258 36.815 3.004L39.413 8.236L45.221 9.08C45.3885 9.10323 45.5461 9.17309 45.6759 9.28161C45.8056 9.39013 45.9022 9.53293 45.9546 9.69373C46.0071 9.85452 46.0133 10.0268 45.9725 10.191C45.9317 10.3551 45.8456 10.5045 45.724 10.622L41.522 14.692L42.514 20.442C42.641 21.18 41.861 21.742 41.194 21.394L36 18.678L30.805 21.394C30.139 21.743 29.359 21.18 29.486 20.441L30.478 14.691L26.276 10.621C26.155 10.5034 26.0694 10.3542 26.029 10.1903C25.9885 10.0265 25.9949 9.85457 26.0473 9.69414C26.0997 9.53372 26.196 9.39122 26.3254 9.28283C26.4547 9.17444 26.6119 9.10452 26.779 9.081L32.587 8.236V8.236Z" fill="#FEDC85" stroke="#EFC968" stroke-width="1.5" stroke-linecap="round" stroke-linejoin="round"/>
<path d="M56.587 8.236L59.185 3.004C59.2606 2.85258 59.3769 2.72523 59.5209 2.63622C59.6648 2.54721 59.8308 2.50006 60 2.50006C60.1693 2.50006 60.3352 2.54721 60.4791 2.63622C60.6231 2.72523 60.7394 2.85258 60.815 3.004L63.413 8.236L69.221 9.08C69.3885 9.10323 69.5461 9.17309 69.6759 9.28161C69.8056 9.39013 69.9022 9.53293 69.9546 9.69373C70.0071 9.85452 70.0133 10.0268 69.9725 10.191C69.9317 10.3551 69.8456 10.5045 69.724 10.622L65.522 14.692L66.514 20.442C66.641 21.18 65.861 21.742 65.194 21.394L60 18.678L54.805 21.394C54.139 21.743 53.359 21.18 53.486 20.441L54.478 14.691L50.276 10.621C50.155 10.5034 50.0694 10.3542 50.029 10.1903C49.9885 10.0265 49.9949 9.85457 50.0473 9.69414C50.0997 9.53372 50.196 9.39122 50.3254 9.28283C50.4547 9.17444 50.6119 9.10452 50.779 9.081L56.587 8.236V8.236Z" fill="#FEDC85" stroke="#EFC968" stroke-width="1.5" stroke-linecap="round" stroke-linejoin="round"/>
<path d="M80.587 8.236L83.185 3.004C83.2606 2.85258 83.3769 2.72523 83.5209 2.63622C83.6648 2.54721 83.8308 2.50006 84 2.50006C84.1693 2.50006 84.3352 2.54721 84.4791 2.63622C84.6231 2.72523 84.7394 2.85258 84.815 3.004L87.413 8.236L93.221 9.08C93.3885 9.10323 93.5461 9.17309 93.6759 9.28161C93.8056 9.39013 93.9022 9.53293 93.9546 9.69373C94.0071 9.85452 94.0133 10.0268 93.9725 10.191C93.9317 10.3551 93.8456 10.5045 93.724 10.622L89.522 14.692L90.514 20.442C90.641 21.18 89.861 21.742 89.194 21.394L84 18.678L78.805 21.394C78.139 21.743 77.359 21.18 77.486 20.441L78.478 14.691L74.276 10.621C74.155 10.5034 74.0694 10.3542 74.029 10.1903C73.9885 10.0265 73.9949 9.85457 74.0473 9.69414C74.0997 9.53372 74.196 9.39122 74.3254 9.28283C74.4547 9.17444 74.6119 9.10452 74.779 9.081L80.587 8.236V8.236Z" fill="#FEDC85" stroke="#EFC968" stroke-width="1.5" stroke-linecap="round" stroke-linejoin="round"/>
<path d="M107.185 3.004C107.261 2.85258 107.377 2.72523 107.521 2.63622C107.665 2.54721 107.831 2.50006 108 2.50006C108.169 2.50006 108.335 2.54721 108.479 2.63622C108.623 2.72523 108.739 2.85258 108.815 3.004L109.311 4.002" stroke="#EFC968" stroke-width="1.5" stroke-linecap="round" stroke-linejoin="round"/>
<path d="M108 18.678L109.572 19.5" stroke="#EFC968" stroke-width="1.5" stroke-linecap="round" stroke-linejoin="round"/>
<path d="M114.329 19.369L114.514 20.441C114.641 21.18 113.861 21.743 113.194 21.394L112.347 20.951" stroke="#EFC968" stroke-width="1.5" stroke-linecap="round" stroke-linejoin="round"/>
<path d="M113.747 16L113.522 14.692L114.217 14.019" stroke="#EFC968" stroke-width="1.5" stroke-linecap="round" stroke-linejoin="round"/>
<path d="M116.301 12L117.724 10.622C117.846 10.5045 117.932 10.3551 117.972 10.191C118.013 10.0268 118.007 9.85452 117.955 9.69373C117.902 9.53294 117.806 9.39013 117.676 9.28161C117.546 9.17309 117.389 9.10323 117.221 9.08L116.111 8.919" stroke="#EFC968" stroke-width="1.5" stroke-linecap="round" stroke-linejoin="round"/>
<path d="M113 8.467L111.413 8.236L110.609 6.618" stroke="#EFC968" stroke-width="1.5" stroke-linecap="round" stroke-linejoin="round"/>
<path d="M104.587 8.236L107.185 3.004C107.259 2.85168 107.376 2.72354 107.52 2.63436C107.664 2.54518 107.83 2.4986 108 2.5V18.678L102.805 21.394C102.139 21.743 101.359 21.18 101.486 20.441L102.478 14.691L98.276 10.621C98.155 10.5034 98.0694 10.3542 98.029 10.1903C97.9885 10.0265 97.9949 9.85457 98.0473 9.69415C98.0997 9.53372 98.196 9.39122 98.3254 9.28283C98.4547 9.17444 98.6119 9.10452 98.779 9.081L104.587 8.236V8.236Z" fill="#FEDC85" stroke="#EFC968" stroke-width="1.5" stroke-linecap="round" stroke-linejoin="round"/>
</svg>
