<svg xmlns="http://www.w3.org/2000/svg" viewBox="0 0 1152.19 96"><defs><style>.cls-1{fill:#ff7581;}.cls-2{fill:#fff;}.cls-3{fill:#595153;}</style></defs><g id="Layer_2" data-name="Layer 2"><g id="Layer_1-2" data-name="Layer 1"><rect class="cls-1" width="755" height="96" rx="39.29"/><path class="cls-2" d="M98.71,41.78H60.57c-1.3,1.84-2.68,3.75-4.21,5.67a10.64,10.64,0,0,1,4.44-.92H83.93A10.66,10.66,0,0,1,94.65,57.25v13a10.72,10.72,0,0,1-10.72,10.8H60.8a10.72,10.72,0,0,1-10.72-10.8v-13a10.4,10.4,0,0,1,.46-3.06A94.78,94.78,0,0,1,38.22,64.83a2.46,2.46,0,0,1-3.45-.54,2.52,2.52,0,0,1,.54-3.44A87.56,87.56,0,0,0,54.53,41.78H36.76a2.32,2.32,0,0,1-2.37-2.3,2.38,2.38,0,0,1,2.37-2.37h21C59,35.27,60.12,33.44,61,31.75H43.88a2.32,2.32,0,0,1-2.37-2.3,2.38,2.38,0,0,1,2.37-2.37h19.6a67.07,67.07,0,0,0,2.84-6.43c-7.51.3-15.93.61-24.28.61a2.38,2.38,0,0,1,0-4.75c16.85,0,33.77-.76,50.54-2.14A2.34,2.34,0,1,1,93,19c-5,.46-15.62,1.23-21.28,1.38-.69,2-1.92,4.9-2.68,6.66H91.13a2.31,2.31,0,0,1,2.29,2.37,2.25,2.25,0,0,1-2.29,2.3H66.62c-.92,1.69-1.83,3.45-3,5.36H98.71A2.31,2.31,0,0,1,101,39.48,2.25,2.25,0,0,1,98.71,41.78Zm-9,24.12v-5H54.91v5ZM54.91,70.34a6.12,6.12,0,0,0,6.05,6H83.7a6.12,6.12,0,0,0,6-6ZM89.67,56.48a6,6,0,0,0-6-5.28H61a6,6,0,0,0-6,5.28Z"/><path class="cls-2" d="M129.33,31.06H107.59a2.32,2.32,0,0,1-2.38-2.3,2.39,2.39,0,0,1,2.38-2.37h21.74a2.38,2.38,0,0,1,2.38,2.37A2.32,2.32,0,0,1,129.33,31.06Zm-3-10.79H110.57a2.38,2.38,0,0,1,0-4.75h15.78a2.38,2.38,0,0,1,0,4.75Zm0,21.66H110.57a2.3,2.3,0,0,1,0-4.59h15.78a2.3,2.3,0,1,1,0,4.59Zm0,10.42H110.57A2.32,2.32,0,0,1,108.28,50a2.25,2.25,0,0,1,2.29-2.29h15.78A2.31,2.31,0,0,1,128.72,50,2.38,2.38,0,0,1,126.35,52.35Zm2.37,19.37c0,5.82-4.44,9.88-10.18,9.88s-10.26-4.06-10.26-9.88V68.35c0-5.9,4.51-9.95,10.26-9.95s10.18,4.05,10.18,9.95Zm-4.67-3.37c0-3.29-2.3-5.28-5.51-5.28s-5.52,2-5.52,5.28v3.37c0,3.22,2.38,5.13,5.52,5.13s5.51-1.91,5.51-5.13Zm47.7,12.79a117.27,117.27,0,0,1-17.46-4.44,106.18,106.18,0,0,1-20.59,4.51,2.09,2.09,0,0,1-2.38-1.76A2.22,2.22,0,0,1,133.16,77a122.89,122.89,0,0,0,14.78-2.75A35,35,0,0,1,140.36,70a5,5,0,0,1-1.84-3.9,4.42,4.42,0,0,1,1.38-3.22,5.54,5.54,0,0,1,3.68-1.3h20.67a5,5,0,0,1,3.44,1.23A4.24,4.24,0,0,1,169.07,66a4.85,4.85,0,0,1-1.83,3.75,39.57,39.57,0,0,1-6.9,4.44A114.32,114.32,0,0,0,172.52,77a2.11,2.11,0,0,1-.77,4.14Zm.92-58h-9v1.3a2.38,2.38,0,0,1-4.75,0V23.1H148.32v1.3A2.38,2.38,0,0,1,146,26.77a2.05,2.05,0,0,1,.46,2.76l-1.3,1.84a5.52,5.52,0,0,1,1.15-.08h6.66l2.37-3.75a2.21,2.21,0,0,1,3-.69,2.15,2.15,0,0,1,.69,3l-1,1.45h12.86a2.13,2.13,0,0,1,2.07,2.15,2.06,2.06,0,0,1-2.07,2.06H157.28v4.06h10.57a2,2,0,0,1,2,2,2,2,0,0,1-2,1.92H157.28V47h10.57a2,2,0,0,1,2,1.91,2,2,0,0,1-2,2H157.28v3.83l13.55-.08a2.2,2.2,0,0,1,2.07,2.22,2.06,2.06,0,0,1-2.07,2.07H146.26a9.18,9.18,0,0,1-9.19-9.26V42.24l-1.23,1.38a2.06,2.06,0,1,1-3.14-2.68c3.6-4.29,7.74-10.26,10.19-13.78a2.2,2.2,0,0,1,1.68-.92,2.45,2.45,0,0,1-1-1.84V23.1h-9.5A2.13,2.13,0,0,1,132,21a2.06,2.06,0,0,1,2.07-2.06h9.5V16.44a2.37,2.37,0,1,1,4.74,0v2.45h10.57V16.44a2.38,2.38,0,1,1,4.75,0v2.45h9A2.06,2.06,0,0,1,174.74,21,2.13,2.13,0,0,1,172.67,23.1ZM152.84,47V43.47H141.35V47Zm0-7.43V35.5h-6.58a4.85,4.85,0,0,0-4.75,4.06Zm0,15.16V50.89H141.58a4.77,4.77,0,0,0,4.68,3.83ZM164.25,65.9H143.58c-.62,0-1.23.15-.54.77,1.84,1.53,6.05,3.75,11.25,5.66a36.74,36.74,0,0,0,10.27-5.89C165.09,66,164.79,65.9,164.25,65.9Z"/><path class="cls-2" d="M206.36,69.35a9.84,9.84,0,0,1-9.88,9.8h-5.2a9.91,9.91,0,0,1-10-9.8V30.91a9.28,9.28,0,0,1,7.66-9L192,14.6a2.42,2.42,0,0,1,3.14-1.38,2.47,2.47,0,0,1,1.3,3.22l-2.29,5.28h2.6A9.22,9.22,0,0,1,206,30.91v4.52a9.15,9.15,0,0,1-9.19,9.11l-10.57.07V53.8h10.26a9.84,9.84,0,0,1,9.88,9.8Zm-5.2-38.44a4.42,4.42,0,0,0-4.37-4.37h-6.28a4.29,4.29,0,0,0-4.29,4.29v8.88h10.57a4.35,4.35,0,0,0,4.37-4.28Zm.3,32.69a5,5,0,0,0-5-5l-10.18.07V69.35a5,5,0,0,0,5,5h5.2a5,5,0,0,0,5-5Zm43.11-41.88H230.4v11.1h2.76a12,12,0,0,1,12,12V64.29a10.53,10.53,0,0,1-3.75,8.35,11.07,11.07,0,0,1-4,1.91,2.41,2.41,0,0,1-.92-4.74c2.53-.69,3.68-3.07,3.68-5.52V44.77a7.09,7.09,0,0,0-7.05-7.12H230.4V80a2.45,2.45,0,0,1-4.9,0V37.65h-2.37a7.09,7.09,0,0,0-7,7.12V72.48a2.52,2.52,0,0,1-2.45,2.46,2.59,2.59,0,0,1-2.53-2.46V44.77a12,12,0,0,1,12-12h2.37V21.72H211.65a2.38,2.38,0,0,1-2.38-2.37,2.45,2.45,0,0,1,2.38-2.45h32.92a2.44,2.44,0,0,1,2.37,2.45A2.38,2.38,0,0,1,244.57,21.72Z"/><path class="cls-2" d="M278.34,56.33l-21.06,16a2.49,2.49,0,0,1-3.52-.53,2.56,2.56,0,0,1,.46-3.53l21-15.92a2.51,2.51,0,1,1,3.07,4Zm38.28-25.42H288.14v7.35c2.37,3.29,4.36,6.81,6.89,10.11l13-10.49a2.43,2.43,0,0,1,3.44.38,2.53,2.53,0,0,1-.38,3.52l-13,10.41A82.22,82.22,0,0,0,317.46,69.5a2.49,2.49,0,0,1,.85,3.37,2.57,2.57,0,0,1-3.45.84c-12.33-7.58-21.67-19.14-26.72-26.34V71c0,5.82-3.37,10.42-9.27,11.11a2.45,2.45,0,0,1-.3-4.9c3.29-.39,4.67-3.22,4.67-6.21v-40H255.75a2.45,2.45,0,1,1,0-4.9h27.33V15.44a2.62,2.62,0,0,1,2.61-2.53,2.54,2.54,0,0,1,2.52,2.53V26h28.41a2.45,2.45,0,1,1,0,4.9Zm-47.85,14a2.54,2.54,0,0,1-.23,3.52,2.43,2.43,0,0,1-3.45-.23l-5.82-6.58a2.53,2.53,0,0,1,.31-3.52,2.42,2.42,0,0,1,3.44.23Zm37.06-22.36a2.37,2.37,0,0,1-1.69-.69L299.85,18a2.47,2.47,0,1,1,3.3-3.68l4.28,4a2.44,2.44,0,0,1,.16,3.45A2.29,2.29,0,0,1,305.83,22.56Z"/><path class="cls-2" d="M387.22,79.76c-9-5.51-16.77-14.63-22.36-24.89a80.09,80.09,0,0,1-6.28-14.77,73,73,0,0,1-2.91,9.18C351.38,60,344,70.65,331.71,79.84A2.78,2.78,0,0,1,328,79.3a2.7,2.7,0,0,1,.54-3.75c11.49-8.65,18.22-18.38,22.2-28.26s4.83-20,4.83-29.17a3.09,3.09,0,0,1,2.91-3.06,3.15,3.15,0,0,1,2.91,3.06c0,1.38-.08,2.76-.08,4.21-.08,9.8,2.37,19.22,8.27,30,5.21,9.57,12.56,18.07,20.44,22.89a2.72,2.72,0,0,1,.92,3.68A2.63,2.63,0,0,1,387.22,79.76Z"/><path class="cls-2" d="M428.49,70H416.85v9.72a2.52,2.52,0,0,1-2.45,2.45,2.59,2.59,0,0,1-2.53-2.45V70H398.93a2.38,2.38,0,0,1,0-4.75h13v-5h-2.37a10.75,10.75,0,0,1-10.72-10.72V42.85a10.75,10.75,0,0,1,10.72-10.72H412V27h-12a2.46,2.46,0,0,1-2.38-2.45,2.39,2.39,0,0,1,2.38-2.37h11.94V15.52a2.53,2.53,0,0,1,5.06,0v6.66H428a2.38,2.38,0,0,1,2.37,2.37A2.45,2.45,0,0,1,428,27H416.85v5.13h2.3a10.69,10.69,0,0,1,10.64,10.72v6.59a10.69,10.69,0,0,1-10.64,10.72h-2.3v5h11.64a2.38,2.38,0,1,1,0,4.75ZM412,43.62V36.88h-2.45a6,6,0,0,0-6,6v.77Zm0,11.87V48.21H403.6v1.23a6.05,6.05,0,0,0,6,6.05Zm13-11.87v-.77a5.91,5.91,0,0,0-5.89-6h-2.38v6.74Zm0,4.59h-8.27v7.28h2.38A6,6,0,0,0,425,49.44Zm42.12,28.64A2.46,2.46,0,0,1,466,80.14,2.37,2.37,0,0,1,462.79,79l-2.68-5.43-26.34,6.2A2.4,2.4,0,0,1,430.86,78a2.49,2.49,0,0,1,1.76-3l4.75-1.07L445,44.38h-9.26a2.53,2.53,0,1,1,0-5.05h28.1a2.53,2.53,0,0,1,0,5.05H450.16l-7.28,28.18L458,69l-3.6-7.35a2.47,2.47,0,0,1,4.44-2.15Zm-5.67-53.22H438.83a2.48,2.48,0,0,1-2.53-2.45,2.55,2.55,0,0,1,2.53-2.52h22.66A2.55,2.55,0,0,1,464,21.18,2.48,2.48,0,0,1,461.49,23.63Z"/><path class="cls-2" d="M492.73,21.64h-.92V79.22a2.38,2.38,0,1,1-4.75,0v-11l-13.63,6A2.32,2.32,0,0,1,471.52,70l3.06-1.37v-47H473a2.38,2.38,0,0,1-2.38-2.37A2.32,2.32,0,0,1,473,17h19.75a2.32,2.32,0,0,1,2.37,2.3A2.38,2.38,0,0,1,492.73,21.64Zm-5.67,11.18V21.64h-7.81V32.82Zm0,15.78V37.34h-7.81V48.6Zm0,14.54v-10h-7.81V66.67Zm45.26,17.77a4.75,4.75,0,0,1-3.83-2.38,33.37,33.37,0,0,1-4.37-10.1,82.3,82.3,0,0,1-10.41,11.94,2.25,2.25,0,1,1-3.06-3.29,84.15,84.15,0,0,0,12.17-14.7A147.18,147.18,0,0,1,520.91,44H495.72a2.3,2.3,0,1,1,0-4.59h12.55L512,30.6a2.23,2.23,0,0,1,3-1.22,2.33,2.33,0,0,1,1.23,3l-3,7h7.5c-.23-6.66-.38-14.17-.38-22.74a2.26,2.26,0,0,1,2.3-2.3,2.32,2.32,0,0,1,2.37,2.3c0,8.57.08,16.15.31,22.74h10.34a2.3,2.3,0,0,1,0,4.59H525.58c.23,4.14.46,8.58,1,12.25,1.08-1.91,2.22-3.83,3.14-5.82a2.28,2.28,0,0,1,4.14,1.92,113.74,113.74,0,0,1-6.13,10.87c.84,4.29,2.68,10.8,4.67,12.79a9.72,9.72,0,0,0,1.84-2.91,2.35,2.35,0,0,1,3-1.3,2.26,2.26,0,0,1,1.3,3C537.52,77.31,535.38,80.91,532.32,80.91ZM515.93,27.16H498.47a2.3,2.3,0,0,1-2.22-2.3,2.22,2.22,0,0,1,2.22-2.22h6.74V16.51a2.38,2.38,0,0,1,2.37-2.37,2.32,2.32,0,0,1,2.3,2.37v6.13h6a2.28,2.28,0,0,1,2.3,2.22A2.36,2.36,0,0,1,515.93,27.16ZM516.24,63c0,5.28-4.21,8.65-9.27,8.65s-9.26-3.37-9.26-8.65V55.72c0-5.29,4.21-8.66,9.26-8.66s9.27,3.37,9.27,8.66ZM504.75,33.74a2.31,2.31,0,1,1-4.29,1.69l-1.15-3a2.28,2.28,0,0,1,1.31-2.91,2.34,2.34,0,0,1,3,1.3Zm7.12,23.43V55.72c0-2.84-2.22-4.37-4.9-4.37s-5,1.53-5,4.37v1.45Zm0,4.21H502V63c0,2.83,2.29,4.29,5,4.29s4.9-1.46,4.9-4.29Zm24.81-31.31a2.34,2.34,0,0,1-1.07,3.14,2.38,2.38,0,0,1-3.14-1l-3.29-6.59a2.36,2.36,0,0,1,4.21-2.14Z"/><path class="cls-2" d="M604.75,39.18l-12.94.3v3.6c0,8.58-1.53,15.62-4.59,21.21-3.45,6.2-8.89,10.87-16.31,14.17a2.8,2.8,0,0,1-1.08.23A2.83,2.83,0,0,1,567,75.85a2.52,2.52,0,0,1,1.61-2.52c6.51-2.84,11-6.89,13.86-12.1,2.45-4.59,3.75-10.64,3.75-18.15V39.56L567.46,40V54.41a2.74,2.74,0,0,1-2.75,2.76,2.81,2.81,0,0,1-2.84-2.76V40.17L548,40.48a2.68,2.68,0,0,1-2.75-2.68A2.75,2.75,0,0,1,547.94,35l13.93-.31V22a2.82,2.82,0,0,1,2.84-2.76A2.74,2.74,0,0,1,567.46,22V34.51l18.61-.46L586,21a2.84,2.84,0,0,1,5.67,0c0,2.68,0,7,.07,12.86l12.87-.3a2.8,2.8,0,0,1,2.83,2.75A2.75,2.75,0,0,1,604.75,39.18Z"/><path class="cls-2" d="M654.67,36.5a2.76,2.76,0,0,1,1.15,2.37V77.16a2.84,2.84,0,0,1-2.83,2.9,2.9,2.9,0,0,1-2.91-2.9V40.25a143.07,143.07,0,0,1-24,15.16,2.47,2.47,0,0,1-1.23.31A2.88,2.88,0,0,1,622,52.88a2.7,2.7,0,0,1,1.61-2.6,125.16,125.16,0,0,0,24.12-15.39c7.35-5.9,13.09-11.56,17.15-17.08a2.63,2.63,0,0,1,2.29-1.14A2.83,2.83,0,0,1,670,19.5a2.76,2.76,0,0,1-.54,1.68A100.7,100.7,0,0,1,654.67,36.5Z"/><path class="cls-2" d="M712,77.31c0,2-1,3-3,3a3,3,0,0,1-3-3l.07-57.2a2.94,2.94,0,0,1,3-3,3,3,0,0,1,3,3Zm19.52-24a79.54,79.54,0,0,0-17.38-9.5A2.8,2.8,0,0,1,712.25,41a2.9,2.9,0,0,1,2.91-2.84,3.74,3.74,0,0,1,1,.16A84.77,84.77,0,0,1,734.84,48.6,2.74,2.74,0,0,1,736.07,51a2.92,2.92,0,0,1-4.6,2.3Z"/><rect class="cls-3" x="792.11" y="59.89" width="21.78" height="22.11"/><rect class="cls-3" x="792.11" y="16" width="21.78" height="22.11"/><rect class="cls-1" x="770" y="38.11" width="22.11" height="21.78"/><rect class="cls-1" x="813.89" y="38.11" width="22.11" height="21.78"/><path class="cls-3" d="M917.54,45.42H884.31V79.51a2.4,2.4,0,0,1-2.39,2.39,2.47,2.47,0,0,1-2.47-2.39v-5.4l-23.91,3.7a2.18,2.18,0,0,1-2.62-1.93,2.32,2.32,0,0,1,1.93-2.62l5.4-.85v-27h-5.71a2.39,2.39,0,1,1,0-4.78h63a2.39,2.39,0,0,1,0,4.78Zm-8.25-18.66a10,10,0,0,1-10.1,10.1H873.12A10,10,0,0,1,863,26.76V23.91a10.17,10.17,0,0,1,10.1-10.26h26.07a10.17,10.17,0,0,1,10.1,10.26ZM879.45,50.59V45.42H865v5.17Zm0,9.41V55.06H865V60Zm0,9.4V64.55H865v7.09ZM904.2,23.06a5.09,5.09,0,0,0-5-4.63H873.12a5.1,5.1,0,0,0-5,4.63Zm-36.09,4.47a5.1,5.1,0,0,0,5,4.63h26.07a5.09,5.09,0,0,0,5-4.63ZM915.77,81.2a48.8,48.8,0,0,1-13.26-8.48,61.7,61.7,0,0,1-12.65,8,2.39,2.39,0,0,1-3.16-1.08,2.49,2.49,0,0,1,1.08-3.24,59.47,59.47,0,0,0,11.33-7,37.41,37.41,0,0,1-7.48-11.25,8,8,0,0,1-.54-2.63A6.47,6.47,0,0,1,897.72,49h10.65a6.51,6.51,0,0,1,6.71,6.4,6.6,6.6,0,0,1-.62,2.62,41.45,41.45,0,0,1-8.41,11.57,42.21,42.21,0,0,0,11.49,7.17,2.4,2.4,0,0,1,1.31,3.16A2.44,2.44,0,0,1,915.77,81.2Zm-7.4-27.45H897.72c-1.54,0-2.23,1.16-1.69,2.62a33.58,33.58,0,0,0,6.63,9.8,39.48,39.48,0,0,0,7.48-10.26C910.76,54.68,909.6,53.75,908.37,53.75Z"/><path class="cls-3" d="M961.66,57H949.55V79a2.37,2.37,0,0,1-2.39,2.47A2.51,2.51,0,0,1,944.61,79v-17A97.75,97.75,0,0,1,933,76.42a2.4,2.4,0,0,1-3.39,0,2.51,2.51,0,0,1,0-3.47,96.25,96.25,0,0,0,12.49-16H931.89a2.34,2.34,0,0,1-2.31-2.39,2.28,2.28,0,0,1,2.31-2.32h12.65V47.81a2.63,2.63,0,0,1,2.62-2.54,2.5,2.5,0,0,1,2.47,2.54v4.47h12A2.28,2.28,0,0,1,964,54.6,2.34,2.34,0,0,1,961.66,57Zm-.39-31H932.58a2.4,2.4,0,0,1-2.39-2.39,2.34,2.34,0,0,1,2.39-2.32h11.65V15.65a2.57,2.57,0,0,1,2.62-2.46,2.44,2.44,0,0,1,2.47,2.46v5.63h11.95a2.34,2.34,0,0,1,2.39,2.32A2.4,2.4,0,0,1,961.27,26Zm0,17.66H932.58a2.47,2.47,0,0,1-2.39-2.47,2.4,2.4,0,0,1,2.39-2.39h15.89l5.63-9.72a2.52,2.52,0,0,1,3.39-.92,2.39,2.39,0,0,1,.85,3.31l-4.09,7.33h7a2.4,2.4,0,0,1,2.39,2.39A2.47,2.47,0,0,1,961.27,43.65Zm-19.43-10a2.54,2.54,0,0,1-1.08,3.4,2.84,2.84,0,0,1-1.08.23,2.39,2.39,0,0,1-2.16-1.31l-2.08-4.09a2.35,2.35,0,0,1,1.08-3.24,2.53,2.53,0,0,1,3.39,1.08ZM956,69.1l-5.17-5a2.24,2.24,0,0,1-.07-3.24,2.42,2.42,0,0,1,3.39-.07l5.09,4.86a2.51,2.51,0,0,1,0,3.47A2.25,2.25,0,0,1,956,69.1Zm41.1-25.91h-6.63V79.28A2.5,2.5,0,0,1,988,81.82a2.57,2.57,0,0,1-2.54-2.54V43.19H974.46v3.62c0,14.19-4.09,25.6-8.87,32.62a2.39,2.39,0,0,1-3.39.62,2.47,2.47,0,0,1-.62-3.47c5.32-8,7.87-20,7.87-29.77V29.3c0-5.63,3.77-10.56,9.56-11.26,3.93-.46,11.1-1.54,14.34-2a2.53,2.53,0,0,1,2.93,2.08,2.61,2.61,0,0,1-2.08,3c-2.39.38-10.64,1.62-14.57,2.08a5.74,5.74,0,0,0-5.17,6.09v9.18h22.59a2.34,2.34,0,0,1,2.32,2.39A2.28,2.28,0,0,1,997.05,43.19Z"/><path class="cls-3" d="M1010.55,48.43a2.41,2.41,0,0,1-2.62,2.16,2.35,2.35,0,0,1-2.16-2.55l1.31-14.65a2.48,2.48,0,0,1,2.62-2.24,2.42,2.42,0,0,1,2.16,2.63Zm9.72,30.85a2.44,2.44,0,0,1-2.47,2.46,2.5,2.5,0,0,1-2.54-2.46V15.35a2.5,2.5,0,0,1,2.54-2.47,2.44,2.44,0,0,1,2.47,2.47Zm8.4-46a2.4,2.4,0,0,1-1.07,3.16,2.47,2.47,0,0,1-3.17-1.16l-2-4a2.36,2.36,0,0,1,1.15-3.16,2.41,2.41,0,0,1,3.17,1.08Zm43.88,8.48h-42.26a2.32,2.32,0,0,1,0-4.63h19V32.77h-12.19a2.31,2.31,0,0,1-2.24-2.31,2.25,2.25,0,0,1,2.24-2.24h12.19V24.06h-16a2.32,2.32,0,0,1,0-4.63h15.89V15a2.75,2.75,0,0,1,2.62-2.55,2.69,2.69,0,0,1,2.55,2.55v4.39h16.42a2.32,2.32,0,1,1,0,4.63h-16.5v4.16h12.49a2.24,2.24,0,0,1,2.24,2.24,2.3,2.3,0,0,1-2.24,2.31H1054.2v4.32h18.35a2.32,2.32,0,1,1,0,4.63Zm-3.47,30.69c0,4.86-3,9-7.71,9.8a2.48,2.48,0,0,1-2.77-2.09,2.4,2.4,0,0,1,2.08-2.69c2.39-.54,3.39-2.63,3.39-5V69.64h-25.22v9.94a2.4,2.4,0,0,1-2.39,2.4,2.54,2.54,0,0,1-2.54-2.4V57a11.21,11.21,0,0,1,11.41-11.26h12.34A11.25,11.25,0,0,1,1069.08,57Zm-5-7.25V60.38h-25.22v4.78Zm-.07-9.25a6.53,6.53,0,0,0-6.33-5.4h-12.34a6.52,6.52,0,0,0-6.32,5.4Z"/><path class="cls-3" d="M1115.51,39.71h-29.84a2.31,2.31,0,1,1,0-4.62h12.88V26.84h-10a2.28,2.28,0,0,1-2.31-2.32,2.41,2.41,0,0,1,2.31-2.47h9.87V15.42a2.77,2.77,0,0,1,2.7-2.62,2.7,2.7,0,0,1,2.62,2.62v6.63h10a2.41,2.41,0,0,1,2.31,2.47,2.28,2.28,0,0,1-2.31,2.32h-10v8.25h11.87a2.31,2.31,0,1,1,0,4.62Zm0,17.28h-11.87v8.33h10.48a2.4,2.4,0,0,1,2.39,2.39,2.34,2.34,0,0,1-2.39,2.31h-10.48v9.72a2.57,2.57,0,0,1-2.55,2.54,2.63,2.63,0,0,1-2.62-2.54V70H1087a2.27,2.27,0,0,1-2.31-2.31,2.34,2.34,0,0,1,2.31-2.39h11.57V57h-12.88a2.28,2.28,0,0,1-2.32-2.31,2.35,2.35,0,0,1,2.32-2.4h18l5.17-10.17a2.72,2.72,0,0,1,3.47-1.08,2.57,2.57,0,0,1,.93,3.39L1109,52.28h6.48a2.35,2.35,0,0,1,2.32,2.4A2.28,2.28,0,0,1,1115.51,57Zm-19.74-10.33a2.35,2.35,0,0,1-4.09,2.31l-2-3.55a2.27,2.27,0,0,1,.85-3.16,2.35,2.35,0,0,1,3.23.85Zm43.11-10.57a2.41,2.41,0,1,1-.54-4.78c3.32-.62,4.93-3.63,4.93-6.63,0-2.24-2-4.94-4.55-4.94h-7.63c-3.32,0-5.4,3.16-5.4,6.09V79.28a2.54,2.54,0,0,1-2.54,2.46,2.41,2.41,0,0,1-2.39-2.46V25.83c0-5.7,4.16-11,10.33-11h7.71c5.32,0,9.72,4.93,9.72,9.87C1148.52,30.46,1144.66,35.4,1138.88,36.09Zm9.41,43.8a60.86,60.86,0,0,1-8.64-9.25,74.83,74.83,0,0,1-8.17,9.33,2.37,2.37,0,1,1-3.32-3.39,67.86,67.86,0,0,0,8.64-10c-3-4.63-6.33-10.26-7.48-15.66-1-4.78,1.54-9.56,7-9.56h6.94a7.07,7.07,0,0,1,6.79,8.64c-1,4.93-4,11.18-7.56,16.58a54.09,54.09,0,0,0,8.87,9.72,2.35,2.35,0,1,1-3.08,3.54Zm-4.94-33.77h-7.17c-2,0-2.78,1.92-2.31,3.62a48.71,48.71,0,0,0,5.7,12.57c2.7-4.63,5.09-9.64,5.79-13C1145.59,48,1144.89,46.12,1143.35,46.12Z"/></g></g></svg>